<svg width="21" height="24" viewBox="0 0 21 24" fill="none" xmlns="http://www.w3.org/2000/svg">
<path d="M10.1914 16.8035C9.84057 16.804 9.50659 16.622 9.27476 16.304L4.07358 9.16221C3.73168 8.67001 3.77759 7.93811 4.17698 7.51375C4.57638 7.0894 5.18317 7.12782 5.54365 7.60028L10.0917 13.8455C10.1169 13.8801 10.1532 13.9 10.1914 13.9C10.2295 13.9 10.2659 13.8801 10.291 13.8455L14.8391 7.60028C15.0674 7.27154 15.4253 7.11799 15.7741 7.19906C16.123 7.28013 16.4081 7.58309 16.5192 7.99071C16.6303 8.39833 16.5499 8.84666 16.3092 9.16221L11.1096 16.3014C10.8773 16.6202 10.5429 16.8031 10.1914 16.8035Z" fill="#FFFFFF"/>
<mask id="mask0_1_13487" style="mask-type:alpha" maskUnits="userSpaceOnUse" x="3" y="7" width="14" height="10">
<path d="M10.1914 16.8035C9.84057 16.804 9.50659 16.622 9.27476 16.304L4.07358 9.16221C3.73168 8.67001 3.77759 7.93811 4.17698 7.51375C4.57638 7.0894 5.18317 7.12782 5.54365 7.60028L10.0917 13.8455C10.1169 13.8801 10.1532 13.9 10.1914 13.9C10.2295 13.9 10.2659 13.8801 10.291 13.8455L14.8391 7.60028C15.0674 7.27154 15.4253 7.11799 15.7741 7.19906C16.123 7.28013 16.4081 7.58309 16.5192 7.99071C16.6303 8.39833 16.5499 8.84666 16.3092 9.16221L11.1096 16.3014C10.8773 16.6202 10.5429 16.8031 10.1914 16.8035Z" fill="white"/>
</mask>
<g mask="url(#mask0_1_13487)">
</g>
</svg>
