<svg width="24" height="24" viewBox="0 0 24 24" fill="none" xmlns="http://www.w3.org/2000/svg">
<g id="backup-data-database-svgrepo-com 1" clip-path="url(#clip0_77_1935)">
<g id="Group">
<path id="Vector" d="M0.1875 7.125H23.8125V0.375H0.1875V7.125ZM1.6875 1.875H22.3125V5.625H1.6875V1.875Z" fill="white"/>
<path id="Vector_2" d="M0.1875 15.375H23.8125V8.625H0.1875V15.375ZM1.6875 10.125H22.3125V13.875H1.6875V10.125Z" fill="white"/>
<path id="Vector_3" d="M0.1875 23.8125H23.8125V17.0625H0.1875V23.8125ZM1.6875 18.5625H22.3125V22.3125H1.6875V18.5625Z" fill="white"/>
<path id="Vector_4" d="M4.3125 3H2.8125V4.5H4.3125V3Z" fill="white"/>
<path id="Vector_5" d="M7.3125 3H5.8125V4.5H7.3125V3Z" fill="white"/>
<path id="Vector_6" d="M10.3125 3H8.8125V4.5H10.3125V3Z" fill="white"/>
<path id="Vector_7" d="M4.3125 11.0625H2.8125V12.5625H4.3125V11.0625Z" fill="white"/>
<path id="Vector_8" d="M7.3125 11.0625H5.8125V12.5625H7.3125V11.0625Z" fill="white"/>
<path id="Vector_9" d="M10.3125 11.0625H8.8125V12.5625H10.3125V11.0625Z" fill="white"/>
<path id="Vector_10" d="M4.3125 19.6875H2.8125V21.1875H4.3125V19.6875Z" fill="white"/>
<path id="Vector_11" d="M7.3125 19.6875H5.8125V21.1875H7.3125V19.6875Z" fill="white"/>
<path id="Vector_12" d="M10.3125 19.6875H8.8125V21.1875H10.3125V19.6875Z" fill="white"/>
</g>
</g>
<defs>
<clipPath id="clip0_77_1935">
<rect width="24" height="24" fill="white"/>
</clipPath>
</defs>
</svg>
