<svg width="90" height="90" viewBox="0 0 90 90" fill="none" xmlns="http://www.w3.org/2000/svg">
<g id="school-svgrepo-com 1" clip-path="url(#clip0_78_2449)">
<path id="Vector" d="M5.2912 23.5232C4.84664 25.035 6.12117 26.7248 7.79603 26.695H82.2014C83.9059 26.6801 85.1361 25.1831 84.7063 23.5232L79.8743 6.81892C79.5483 5.73697 78.5404 4.99573 77.3695 4.99573H12.628C11.472 4.99573 10.4492 5.73674 10.1232 6.81892" fill="#FFC10D"/>
<path id="Vector_2" d="M89.7012 22.1747L84.8692 5.47045C83.9354 2.23928 80.8525 0.00109863 77.399 0.00109863H12.6279C9.15967 0.00109863 6.07661 2.25395 5.15768 5.47045L0.310809 22.1747C-0.756466 25.8949 0.977769 29.2891 4.66841 31.0529V82.4846C4.66841 86.6347 8.13665 89.9993 12.4351 89.9993H77.5622C81.8458 89.9993 85.3436 86.6347 85.3436 82.4995V31.0532C88.9602 29.6154 90.7535 25.6728 89.7012 22.1747ZM49.3415 85.0045H40.6707V71.0424L45.0134 66.8627L49.3561 71.0424V85.0045H49.3415ZM80.1709 82.4997C80.1709 83.8781 79 85.0045 77.5771 85.0045H54.529V70.0049C54.529 69.3528 54.2622 68.7155 53.7731 68.2262L46.8513 61.5414C45.8434 60.5631 44.1981 60.5631 43.1903 61.5414L36.2535 68.2262C35.7792 68.6857 35.4976 69.323 35.4976 70.0049V85.0045H12.4351C10.9973 85.0045 9.84131 83.893 9.84131 82.4997V31.6903H80.156V82.4995H80.1709V82.4997ZM82.2163 26.6956H7.79594C6.15067 26.7251 4.87613 25.0356 5.29112 23.5238L5.58757 22.501H13.1763C14.6141 22.501 15.7701 21.3895 15.7701 19.9962C15.7701 18.6178 14.6141 17.4913 13.1763 17.4913H7.05493L8.16645 13.6673H22.4102C23.8479 13.6673 25.0039 12.5557 25.0039 11.1624C25.0039 9.78403 23.8479 8.6576 22.4102 8.6576H9.60424L10.1378 6.81973C10.4638 5.73778 11.4717 4.99654 12.6426 4.99654H77.3843C78.5403 4.99654 79.5631 5.73756 79.8891 6.81973L84.7211 23.524C85.151 25.1984 83.9207 26.6956 82.2163 26.6956Z" fill="#194F82"/>
<path id="Vector_3" d="M9.8414 82.4993C9.8414 83.8777 11.0123 85.0041 12.4352 85.0041H35.483V70.0045C35.483 69.3525 35.7499 68.7151 36.239 68.2258L43.1608 61.5411C44.1687 60.5627 45.8139 60.5627 46.8218 61.5411L53.7436 68.2258C54.218 68.6853 54.4996 69.3227 54.4996 70.0045V85.0041H77.5474C78.9852 85.0041 80.1412 83.8926 80.1412 82.4993V31.6899H9.8414V82.4993Z" fill="white"/>
<g id="Group">
<path id="Vector_4" d="M49.3416 71.042L44.9989 66.8474L40.6708 71.042V85.0041H49.3416V71.042Z" fill="#56ACE0"/>
<path id="Vector_5" d="M24.9747 44.9407H19.8018V49.9357H24.9747V44.9407Z" fill="#56ACE0"/>
<path id="Vector_6" d="M47.5777 44.9407H42.4048V49.9357H47.5777V44.9407Z" fill="#56ACE0"/>
<path id="Vector_7" d="M70.1959 44.9407H65.023V49.9357H70.1959V44.9407Z" fill="#56ACE0"/>
<path id="Vector_8" d="M24.9747 67.4995H19.8018V72.4945H24.9747V67.4995Z" fill="#56ACE0"/>
<path id="Vector_9" d="M70.1959 67.4995H65.023V72.4945H70.1959V67.4995Z" fill="#56ACE0"/>
</g>
<g id="Group_2">
<path id="Vector_10" d="M27.5831 54.9602H17.2227C15.7849 54.9602 14.6289 53.8487 14.6289 52.4554V42.4654C14.6289 41.087 15.7849 39.9606 17.2227 39.9606H27.5831C29.0209 39.9606 30.1769 41.0721 30.1769 42.4654V52.4554C30.1769 53.8338 29.0209 54.9602 27.5831 54.9602ZM19.8018 49.9356H24.9747V44.9406H19.8018V49.9356Z" fill="#194F82"/>
<path id="Vector_11" d="M50.1864 54.9602H39.8259C38.3882 54.9602 37.2322 53.8487 37.2322 52.4554V42.4654C37.2322 41.087 38.3882 39.9606 39.8259 39.9606H50.1864C51.6242 39.9606 52.7802 41.0721 52.7802 42.4654V52.4554C52.7802 53.8338 51.6242 54.9602 50.1864 54.9602ZM42.4048 49.9356H47.5777V44.9406H42.4048V49.9356Z" fill="#194F82"/>
<path id="Vector_12" d="M72.7897 54.9602H62.4292C60.9915 54.9602 59.8354 53.8487 59.8354 52.4554V42.4654C59.8354 41.087 60.9915 39.9606 62.4292 39.9606H72.7897C74.2275 39.9606 75.3835 41.0721 75.3835 42.4654V52.4554C75.3835 53.8338 74.2273 54.9602 72.7897 54.9602ZM65.023 49.9356H70.1959V44.9406H65.023V49.9356Z" fill="#194F82"/>
<path id="Vector_13" d="M27.5831 77.4895H17.2227C15.7849 77.4895 14.6289 76.378 14.6289 74.9847V65.0096C14.6289 63.6312 15.7849 62.5048 17.2227 62.5048H27.5831C29.0209 62.5048 30.1769 63.6163 30.1769 65.0096V74.9996C30.1769 76.378 29.0209 77.4895 27.5831 77.4895ZM19.8018 72.4945H24.9747V67.4995H19.8018V72.4945Z" fill="#194F82"/>
<path id="Vector_14" d="M72.7897 77.4895H62.4292C60.9915 77.4895 59.8354 76.378 59.8354 74.9847V65.0096C59.8354 63.6312 60.9915 62.5048 62.4292 62.5048H72.7897C74.2275 62.5048 75.3835 63.6163 75.3835 65.0096V74.9996C75.3835 76.378 74.2273 77.4895 72.7897 77.4895ZM65.023 72.4945H70.1959V67.4995H65.023V72.4945Z" fill="#194F82"/>
</g>
</g>
<defs>
<clipPath id="clip0_78_2449">
<rect width="90" height="90" fill="white"/>
</clipPath>
</defs>
</svg>
