<svg width="16" height="17" viewBox="0 0 16 17" fill="none" xmlns="http://www.w3.org/2000/svg">
<path d="M11.7429 10.8429C12.7112 9.52157 13.1449 7.88337 12.9572 6.25603C12.7695 4.62869 11.9743 3.13222 10.7307 2.06601C9.48701 0.999801 7.88665 0.442483 6.24973 0.505557C4.61282 0.56863 3.06008 1.24744 1.90217 2.40619C0.744249 3.56493 0.0665484 5.11816 0.00464653 6.75511C-0.0572553 8.39207 0.501207 9.99204 1.56831 11.2349C2.6354 12.4778 4.13244 13.2719 5.75992 13.4585C7.38739 13.645 9.02528 13.2101 10.3459 12.2409H10.3449C10.3749 12.2809 10.4069 12.3189 10.4429 12.3559L14.2929 16.2059C14.4804 16.3935 14.7348 16.499 15 16.4991C15.2653 16.4992 15.5198 16.3939 15.7074 16.2064C15.895 16.0189 16.0005 15.7645 16.0006 15.4992C16.0007 15.234 15.8954 14.9795 15.7079 14.7919L11.8579 10.9419C11.8221 10.9057 11.7837 10.8733 11.7429 10.8429ZM12.0009 6.99888C12.0009 7.72115 11.8586 8.43635 11.5822 9.10364C11.3058 9.77093 10.9007 10.3772 10.39 10.888C9.87926 11.3987 9.27295 11.8038 8.60566 12.0802C7.93837 12.3566 7.22317 12.4989 6.5009 12.4989C5.77863 12.4989 5.06343 12.3566 4.39614 12.0802C3.72885 11.8038 3.12253 11.3987 2.61181 10.888C2.10109 10.3772 1.69596 9.77093 1.41956 9.10364C1.14316 8.43635 1.0009 7.72115 1.0009 6.99888C1.0009 5.54019 1.58036 4.14124 2.61181 3.10979C3.64326 2.07834 5.04221 1.49888 6.5009 1.49888C7.95959 1.49888 9.35854 2.07834 10.39 3.10979C11.4214 4.14124 12.0009 5.54019 12.0009 6.99888Z" fill="#8A8A8A"/>
</svg>
