<svg width="33" height="33" viewBox="0 0 33 33" fill="none" xmlns="http://www.w3.org/2000/svg">
<g id="Frame">
<path id="Vector" d="M26.4626 6.98286L15.3856 3.14297C15.1962 3.07734 14.9913 3.07734 14.8019 3.14297L3.74266 6.97671L3.74154 6.97712L3.72493 6.98286C3.72168 6.98397 3.71881 6.98582 3.71558 6.98699C3.6756 7.00131 3.63663 7.0185 3.59895 7.03843C3.59463 7.04071 3.59013 7.04265 3.58585 7.045C3.54852 7.06573 3.51262 7.08911 3.47838 7.11498C3.47084 7.12061 3.4635 7.12641 3.45613 7.13226C3.42284 7.15848 3.39128 7.18699 3.36166 7.2176C3.35892 7.2205 3.35654 7.22367 3.35383 7.22657C3.32651 7.25617 3.30103 7.28755 3.27755 7.32052C3.27276 7.3272 3.26779 7.33371 3.26316 7.34053C3.23893 7.37614 3.21707 7.41342 3.19772 7.45212C3.19474 7.4581 3.19217 7.46422 3.18931 7.47026C3.17124 7.50817 3.15562 7.5473 3.14255 7.58738C3.14133 7.59116 3.13981 7.59474 3.13863 7.59854C3.1256 7.64117 3.11546 7.68469 3.1083 7.72879C3.10676 7.73799 3.10553 7.74716 3.10425 7.75639C3.09761 7.80181 3.0941 7.84767 3.09375 7.89361V17.4933C3.09375 17.7479 3.191 17.9921 3.36411 18.1721C3.53722 18.3522 3.77201 18.4533 4.01683 18.4533C4.26164 18.4533 4.49643 18.3522 4.66954 18.1721C4.84265 17.9921 4.9399 17.7479 4.9399 17.4933V9.22556L8.81511 10.5689C7.78779 12.2941 7.45905 14.372 7.90078 16.3485C8.3425 18.325 9.51876 20.0392 11.1724 21.1163C8.97047 21.9822 7.09157 23.5559 5.80884 25.6087C5.74248 25.7143 5.69679 25.8325 5.67438 25.9564C5.65197 26.0804 5.65327 26.2078 5.67821 26.3312C5.70315 26.4546 5.75124 26.5718 5.81974 26.6759C5.88823 26.78 5.97579 26.869 6.07739 26.9379C6.179 27.0068 6.29267 27.0542 6.4119 27.0774C6.53113 27.1006 6.65359 27.0991 6.77226 27.073C6.89094 27.047 7.00352 26.9968 7.10355 26.9255C7.20359 26.8541 7.28912 26.763 7.35526 26.6573C8.19387 25.3174 9.34088 24.2165 10.6922 23.4544C12.0436 22.6923 13.5565 22.2932 15.0937 22.2932C16.631 22.2932 18.1439 22.6923 19.4952 23.4544C20.8466 24.2165 21.9936 25.3174 22.8322 26.6573C22.8984 26.7629 22.9839 26.8539 23.084 26.9251C23.184 26.9963 23.2965 27.0463 23.4151 27.0723C23.5337 27.0983 23.6561 27.0997 23.7753 27.0765C23.8944 27.0533 24.008 27.0059 24.1095 26.9371C24.2111 26.8682 24.2986 26.7793 24.367 26.6753C24.4355 26.5712 24.4836 26.4542 24.5086 26.3309C24.5336 26.2075 24.535 26.0802 24.5127 25.9563C24.4904 25.8324 24.4448 25.7143 24.3786 25.6087C23.0959 23.5559 21.217 21.9822 19.0151 21.1164C20.6687 20.0392 21.845 18.325 22.2867 16.3485C22.7285 14.372 22.3997 12.2941 21.3724 10.5689L26.4626 8.80437C26.6464 8.74064 26.8062 8.6184 26.9195 8.45494C27.0328 8.29148 27.0938 8.0951 27.0938 7.89361C27.0938 7.69213 27.0328 7.49575 26.9195 7.33229C26.8062 7.16883 26.6464 7.04658 26.4626 6.98286ZM20.6322 14.6134C20.6324 15.524 20.425 16.4217 20.0271 17.2327C19.6291 18.0438 19.0519 18.7452 18.3428 19.2794C17.6337 19.8136 16.8129 20.1653 15.9478 20.3057C15.0827 20.4461 14.1979 20.3712 13.366 20.0872C12.5341 19.8031 11.7789 19.318 11.1622 18.6716C10.5455 18.0252 10.0849 17.236 9.8183 16.3686C9.55168 15.5013 9.4866 14.5806 9.62839 13.682C9.77018 12.7835 10.1148 11.9327 10.634 11.1994L14.8019 12.6443C14.9913 12.7099 15.1962 12.7099 15.3856 12.6443L19.5535 11.1994C20.255 12.1881 20.6331 13.3847 20.6322 14.6134ZM19.5594 9.17356C19.5571 9.17441 19.5548 9.17511 19.5525 9.17596L15.0938 10.7216L10.635 9.17596C10.6327 9.17508 10.6303 9.17438 10.628 9.1735L6.93587 7.89361L15.0938 5.06561L23.2516 7.89361L19.5594 9.17356Z" fill="white"/>
</g>
</svg>
