<svg width="24" height="24" viewBox="0 0 24 24" fill="none" xmlns="http://www.w3.org/2000/svg">
<g id="chalkboard-teacher-svgrepo-com 1" clip-path="url(#clip0_77_1894)">
<path id="Vector" d="M7.79979 15.6C7.71016 15.6 7.62054 15.6131 7.53504 15.6409C7.04904 15.7988 6.53791 15.9 5.99979 15.9C5.46166 15.9 4.95054 15.7988 4.46416 15.6409C4.37866 15.6131 4.28941 15.6 4.19979 15.6C1.87254 15.6 -0.0125891 17.493 -0.000214078 19.8233C0.00503592 20.808 0.814661 21.6 1.79979 21.6H10.1998C11.1849 21.6 11.9945 20.808 11.9998 19.8233C12.0122 17.493 10.127 15.6 7.79979 15.6ZM5.99979 14.4C7.98804 14.4 9.59979 12.7883 9.59979 10.8C9.59979 8.81177 7.98804 7.20002 5.99979 7.20002C4.01154 7.20002 2.39979 8.81177 2.39979 10.8C2.39979 12.7883 4.01154 14.4 5.99979 14.4ZM22.1998 2.40002H7.79979C6.80716 2.40002 5.99979 3.2344 5.99979 4.25965V6.00002C6.87804 6.00002 7.69104 6.25427 8.39979 6.66752V4.80002H21.5998V15.6H19.1998V13.2H14.3998V15.6H11.5408C12.257 16.2259 12.7828 17.0524 13.0292 18H22.1998C23.1924 18 23.9998 17.1656 23.9998 16.1404V4.25965C23.9998 3.2344 23.1924 2.40002 22.1998 2.40002Z" fill="white"/>
</g>
<defs>
<clipPath id="clip0_77_1894">
<rect width="24" height="24" fill="white"/>
</clipPath>
</defs>
</svg>
